# xmcd
#
# Track frame offsets:
#	150
#	17436
#	32909
#	43425
#	55147
#	72057
#	87642
#	99915
#	121417
#	136801
#	146323
#	158371
#
# Disc length: 2301 seconds
#
# Revision: 1
# Processed by: cddbd v1.5.2PL0 Copyright (c) Steve Scherf et al.
# Submitted via: audiograbber 1.83.01
#
DISCID=9708fb0c
DTITLE=Western Heart - Western Heart 002 Western Heart
DYEAR=2000
DGENRE=Country
TTITLE0=Pretty Paper - Kevin Shaw
TTITLE1=Stand Back - Arne Benoni
TTITLE2=Heartaches, Headaches And Hangovers - Ernie Ashworth
TTITLE3=Definite Maybe - Christi Owens
TTITLE4=Wild Roses - Justin Petraitis
TTITLE5=My Hands Are Free - Erin Hay
TTITLE6=Cinderella - Harold Rogers
TTITLE7=Guards At The Gate Of My Heart - Beth Singers
TTITLE8=Roling Out Of Memphis - Jim Arp
TTITLE9=Blue Moon Of Kentucky - Shiloh West With Tom Cunningham
TTITLE10=Livin´ On Your Mind - Shiloh West
TTITLE11=Commode Huggin´ Drunk - Doc Randolph
EXTD=
EXTT0=
EXTT1=
EXTT2=
EXTT3=
EXTT4=
EXTT5=
EXTT6=
EXTT7=
EXTT8=
EXTT9=
EXTT10=
EXTT11=
PLAYORDER=
